<svg width="375" height="812" viewBox="0 0 375 812" fill="none" xmlns="http://www.w3.org/2000/svg">
<g clip-path="url(#clip0_1_1873)">
<rect width="375" height="812" fill="white"/>
<path opacity="0.35" d="M338.667 17.834H355.333C356.53 17.834 357.5 18.8044 357.5 20.001V26.001C357.5 27.1974 356.53 28.167 355.333 28.167H338.667C337.47 28.167 336.5 27.1974 336.5 26.001V20.001L336.511 19.7793C336.622 18.6866 337.545 17.834 338.667 17.834Z" stroke="black"/>
<path opacity="0.4" d="M359 21.001V25.001C359.805 24.6622 360.328 23.8741 360.328 23.001C360.328 22.1278 359.805 21.3398 359 21.001Z" fill="black"/>
<path d="M338 20.6673C338 19.9309 338.597 19.334 339.333 19.334H354.667C355.403 19.334 356 19.9309 356 20.6673V25.334C356 26.0704 355.403 26.6673 354.667 26.6673H339.333C338.597 26.6673 338 26.0704 338 25.334V20.6673Z" fill="black"/>
<path d="M321.12 25.7316C322.396 24.6528 324.264 24.6528 325.539 25.7316C325.603 25.7897 325.641 25.8717 325.643 25.9582C325.644 26.0445 325.611 26.1282 325.549 26.1887L323.552 28.2043C323.494 28.2634 323.413 28.296 323.33 28.2961C323.247 28.2961 323.167 28.2633 323.109 28.2043L321.111 26.1887C321.049 26.128 321.015 26.0437 321.017 25.9572C321.019 25.871 321.056 25.7895 321.12 25.7316ZM318.455 23.0422C321.203 20.4861 325.459 20.4862 328.207 23.0422C328.269 23.102 328.305 23.1846 328.306 23.2707C328.307 23.3569 328.273 23.44 328.212 23.5012L327.058 24.6681C326.939 24.7872 326.746 24.7899 326.624 24.674C325.722 23.8568 324.548 23.4044 323.33 23.4045C322.114 23.405 320.94 23.8573 320.038 24.674C319.916 24.7898 319.724 24.7872 319.605 24.6681L318.45 23.5012C318.39 23.4401 318.356 23.3568 318.357 23.2707C318.358 23.1846 318.393 23.102 318.455 23.0422ZM315.79 20.3605C320.005 16.3214 326.655 16.3211 330.87 20.3605C330.931 20.4205 330.965 20.5026 330.966 20.5881C330.967 20.6736 330.933 20.7559 330.872 20.8166L329.716 21.9836C329.597 22.103 329.404 22.1043 329.283 21.9865C327.678 20.4598 325.546 19.6087 323.33 19.6086C321.114 19.6086 318.982 20.4596 317.376 21.9865C317.255 22.1045 317.063 22.1033 316.944 21.9836L315.787 20.8166C315.727 20.7558 315.693 20.6736 315.694 20.5881C315.694 20.5026 315.729 20.4204 315.79 20.3605Z" fill="black"/>
<path d="M295.667 24.334C296.219 24.334 296.667 24.7817 296.667 25.334V27.334C296.667 27.8863 296.219 28.334 295.667 28.334H294.667C294.114 28.334 293.667 27.8863 293.667 27.334V25.334C293.667 24.7817 294.114 24.334 294.667 24.334H295.667ZM300.333 22.334C300.886 22.3342 301.333 22.7819 301.333 23.334V27.334C301.333 27.8861 300.886 28.3337 300.333 28.334H299.333C298.781 28.334 298.333 27.8863 298.333 27.334V23.334C298.333 22.7817 298.781 22.334 299.333 22.334H300.333ZM309.667 17.667C310.219 17.667 310.667 18.1147 310.667 18.667V27.334C310.666 27.8861 310.219 28.334 309.667 28.334H308.667C308.114 28.334 307.667 27.8861 307.667 27.334V18.667C307.667 18.1147 308.114 17.667 308.667 17.667H309.667ZM305 20C305.553 20.0003 306 20.4479 306 21V27.333C306 27.8851 305.553 28.3327 305 28.333H304C303.448 28.333 303 27.8853 303 27.333V21C303 20.4477 303.448 20 304 20H305Z" fill="black"/>
<path d="M37.3208 28.2568C40.0088 28.2568 41.6055 26.1548 41.6055 22.5952C41.6055 21.2549 41.3491 20.127 40.8584 19.2554C40.1479 17.9004 38.9248 17.168 37.3794 17.168C35.0796 17.168 33.4536 18.7134 33.4536 20.8813C33.4536 22.9175 34.9185 24.397 36.9326 24.397C38.1704 24.397 39.1738 23.8184 39.6719 22.8149H39.6938C39.6938 22.8149 39.7231 22.8149 39.7305 22.8149C39.7451 22.8149 39.7964 22.8149 39.7964 22.8149C39.7964 25.2319 38.8809 26.6748 37.3354 26.6748C36.4272 26.6748 35.7241 26.1768 35.4824 25.3784H33.6001C33.915 27.1143 35.3872 28.2568 37.3208 28.2568ZM37.3867 22.8955C36.1709 22.8955 35.3066 22.0312 35.3066 20.8228C35.3066 19.6436 36.2148 18.7427 37.394 18.7427C38.5732 18.7427 39.4814 19.6582 39.4814 20.8521C39.4814 22.0312 38.5952 22.8955 37.3867 22.8955Z" fill="black"/>
<path d="M44.6966 28.1543C45.3924 28.1543 45.8685 27.6562 45.8685 26.9971C45.8685 26.3306 45.3924 25.8398 44.6966 25.8398C44.0081 25.8398 43.5247 26.3306 43.5247 26.9971C43.5247 27.6562 44.0081 28.1543 44.6966 28.1543ZM44.6966 22.6611C45.3924 22.6611 45.8685 22.1704 45.8685 21.5112C45.8685 20.8447 45.3924 20.354 44.6966 20.354C44.0081 20.354 43.5247 20.8447 43.5247 21.5112C43.5247 22.1704 44.0081 22.6611 44.6966 22.6611Z" fill="black"/>
<path d="M52.7242 28.0005H54.5333V26.0303H55.9615V24.4336H54.5333V17.4316H51.8673C49.9996 20.2441 48.5128 22.5952 47.5606 24.3457V26.0303H52.7242V28.0005ZM49.3111 24.3677C50.5416 22.1997 51.6402 20.4639 52.651 18.9697H52.7535V24.4775H49.3111V24.3677Z" fill="black"/>
<path d="M59.9901 28.0005H61.8798V17.4316H59.9975L57.2362 19.3652V21.1816L59.8656 19.3359H59.9901V28.0005Z" fill="black"/>
<g clip-path="url(#clip1_1_1873)">
<mask id="path-8-inside-1_1_1873" fill="white">
<path d="M0 788H375V812H0V788Z"/>
</mask>
<path d="M0 788H375V812H0V788Z" fill="white"/>
<rect x="121" y="799" width="134" height="5" rx="2.5" fill="black"/>
</g>
<path d="M0 788V788.5H375V788V787.5H0V788Z" fill="#E6E6E6" mask="url(#path-8-inside-1_1_1873)"/>
<rect x="146" y="379" width="82" height="45" rx="7" fill="#EAFF2B"/>
<circle cx="225.25" cy="385.25" r="10.25" fill="#FCAC3D"/>
<path d="M115.19 351.125C115.084 350.133 114.637 349.36 113.849 348.807C113.069 348.254 112.054 347.977 110.804 347.977C109.925 347.977 109.171 348.11 108.542 348.375C107.914 348.64 107.432 349 107.099 349.455C106.766 349.909 106.595 350.428 106.588 351.011C106.588 351.496 106.698 351.917 106.917 352.273C107.145 352.629 107.451 352.932 107.838 353.182C108.224 353.424 108.652 353.629 109.122 353.795C109.592 353.962 110.065 354.102 110.542 354.216L112.724 354.761C113.603 354.966 114.448 355.242 115.258 355.591C116.076 355.939 116.807 356.379 117.451 356.909C118.103 357.439 118.618 358.08 118.997 358.83C119.376 359.58 119.565 360.458 119.565 361.466C119.565 362.83 119.217 364.03 118.52 365.068C117.823 366.098 116.815 366.905 115.497 367.489C114.186 368.064 112.599 368.352 110.736 368.352C108.925 368.352 107.353 368.072 106.02 367.511C104.694 366.951 103.656 366.133 102.906 365.057C102.164 363.981 101.762 362.67 101.701 361.125H105.849C105.91 361.936 106.16 362.61 106.599 363.148C107.039 363.686 107.611 364.087 108.315 364.352C109.027 364.617 109.823 364.75 110.701 364.75C111.618 364.75 112.421 364.614 113.111 364.341C113.807 364.061 114.353 363.674 114.747 363.182C115.141 362.682 115.342 362.098 115.349 361.432C115.342 360.826 115.164 360.326 114.815 359.932C114.467 359.53 113.978 359.197 113.349 358.932C112.728 358.659 112.001 358.417 111.167 358.205L108.52 357.523C106.603 357.03 105.088 356.284 103.974 355.284C102.868 354.277 102.315 352.939 102.315 351.273C102.315 349.902 102.686 348.701 103.429 347.67C104.179 346.64 105.198 345.841 106.486 345.273C107.773 344.697 109.232 344.409 110.861 344.409C112.512 344.409 113.959 344.697 115.201 345.273C116.451 345.841 117.432 346.633 118.145 347.648C118.857 348.655 119.224 349.814 119.247 351.125H115.19ZM130.115 368.341C128.373 368.341 126.877 367.958 125.627 367.193C124.384 366.428 123.426 365.371 122.752 364.023C122.085 362.667 121.752 361.106 121.752 359.341C121.752 357.568 122.093 356.004 122.774 354.648C123.456 353.284 124.418 352.223 125.661 351.466C126.911 350.701 128.388 350.318 130.093 350.318C131.509 350.318 132.763 350.58 133.854 351.102C134.953 351.617 135.828 352.348 136.479 353.295C137.131 354.235 137.502 355.333 137.593 356.591H133.661C133.502 355.75 133.123 355.049 132.524 354.489C131.934 353.92 131.142 353.636 130.149 353.636C129.309 353.636 128.57 353.864 127.934 354.318C127.297 354.765 126.801 355.409 126.445 356.25C126.096 357.091 125.922 358.098 125.922 359.273C125.922 360.462 126.096 361.485 126.445 362.341C126.793 363.189 127.282 363.845 127.911 364.307C128.547 364.761 129.293 364.989 130.149 364.989C130.756 364.989 131.297 364.875 131.774 364.648C132.259 364.413 132.665 364.076 132.99 363.636C133.316 363.197 133.54 362.663 133.661 362.034H137.593C137.494 363.269 137.131 364.364 136.502 365.318C135.873 366.265 135.017 367.008 133.934 367.545C132.85 368.076 131.578 368.341 130.115 368.341ZM144.444 357.773V368H140.331V344.727H144.353V353.511H144.558C144.967 352.527 145.599 351.75 146.456 351.182C147.319 350.606 148.418 350.318 149.751 350.318C150.963 350.318 152.02 350.572 152.921 351.08C153.823 351.587 154.52 352.33 155.012 353.307C155.512 354.284 155.762 355.477 155.762 356.886V368H151.649V357.523C151.649 356.348 151.346 355.436 150.74 354.784C150.141 354.125 149.3 353.795 148.217 353.795C147.49 353.795 146.838 353.955 146.262 354.273C145.694 354.583 145.247 355.034 144.921 355.625C144.603 356.216 144.444 356.932 144.444 357.773ZM166.929 368.341C165.225 368.341 163.747 367.966 162.497 367.216C161.247 366.466 160.278 365.417 159.588 364.068C158.906 362.72 158.566 361.144 158.566 359.341C158.566 357.538 158.906 355.958 159.588 354.602C160.278 353.246 161.247 352.193 162.497 351.443C163.747 350.693 165.225 350.318 166.929 350.318C168.634 350.318 170.111 350.693 171.361 351.443C172.611 352.193 173.577 353.246 174.259 354.602C174.948 355.958 175.293 357.538 175.293 359.341C175.293 361.144 174.948 362.72 174.259 364.068C173.577 365.417 172.611 366.466 171.361 367.216C170.111 367.966 168.634 368.341 166.929 368.341ZM166.952 365.045C167.876 365.045 168.649 364.792 169.27 364.284C169.891 363.769 170.353 363.08 170.656 362.216C170.967 361.352 171.122 360.39 171.122 359.33C171.122 358.261 170.967 357.295 170.656 356.432C170.353 355.561 169.891 354.867 169.27 354.352C168.649 353.837 167.876 353.58 166.952 353.58C166.005 353.58 165.217 353.837 164.588 354.352C163.967 354.867 163.501 355.561 163.191 356.432C162.887 357.295 162.736 358.261 162.736 359.33C162.736 360.39 162.887 361.352 163.191 362.216C163.501 363.08 163.967 363.769 164.588 364.284C165.217 364.792 166.005 365.045 166.952 365.045ZM185.758 368.341C184.053 368.341 182.576 367.966 181.326 367.216C180.076 366.466 179.106 365.417 178.417 364.068C177.735 362.72 177.394 361.144 177.394 359.341C177.394 357.538 177.735 355.958 178.417 354.602C179.106 353.246 180.076 352.193 181.326 351.443C182.576 350.693 184.053 350.318 185.758 350.318C187.462 350.318 188.94 350.693 190.19 351.443C191.44 352.193 192.406 353.246 193.087 354.602C193.777 355.958 194.122 357.538 194.122 359.341C194.122 361.144 193.777 362.72 193.087 364.068C192.406 365.417 191.44 366.466 190.19 367.216C188.94 367.966 187.462 368.341 185.758 368.341ZM185.781 365.045C186.705 365.045 187.478 364.792 188.099 364.284C188.72 363.769 189.182 363.08 189.485 362.216C189.796 361.352 189.951 360.39 189.951 359.33C189.951 358.261 189.796 357.295 189.485 356.432C189.182 355.561 188.72 354.867 188.099 354.352C187.478 353.837 186.705 353.58 185.781 353.58C184.834 353.58 184.046 353.837 183.417 354.352C182.796 354.867 182.33 355.561 182.019 356.432C181.716 357.295 181.565 358.261 181.565 359.33C181.565 360.39 181.716 361.352 182.019 362.216C182.33 363.08 182.796 363.769 183.417 364.284C184.046 364.792 184.834 365.045 185.781 365.045ZM201.087 344.727V368H196.973V344.727H201.087ZM212.156 368V344.727H220.883C222.671 344.727 224.171 345.061 225.383 345.727C226.603 346.394 227.523 347.311 228.145 348.477C228.773 349.636 229.088 350.955 229.088 352.432C229.088 353.924 228.773 355.25 228.145 356.409C227.516 357.568 226.588 358.481 225.361 359.148C224.133 359.807 222.622 360.136 220.827 360.136H215.042V356.67H220.258C221.304 356.67 222.16 356.489 222.827 356.125C223.493 355.761 223.986 355.261 224.304 354.625C224.63 353.989 224.792 353.258 224.792 352.432C224.792 351.606 224.63 350.879 224.304 350.25C223.986 349.621 223.489 349.133 222.815 348.784C222.148 348.428 221.289 348.25 220.236 348.25H216.372V368H212.156ZM236.042 344.727V368H231.928V344.727H236.042ZM244.654 368.352C243.548 368.352 242.552 368.155 241.666 367.761C240.787 367.36 240.09 366.769 239.575 365.989C239.067 365.208 238.814 364.246 238.814 363.102C238.814 362.117 238.995 361.303 239.359 360.659C239.723 360.015 240.219 359.5 240.848 359.114C241.476 358.727 242.185 358.436 242.973 358.239C243.768 358.034 244.59 357.886 245.439 357.795C246.461 357.689 247.291 357.595 247.927 357.511C248.564 357.42 249.026 357.284 249.314 357.102C249.609 356.913 249.757 356.621 249.757 356.227V356.159C249.757 355.303 249.503 354.64 248.995 354.17C248.488 353.701 247.757 353.466 246.802 353.466C245.795 353.466 244.995 353.686 244.404 354.125C243.821 354.564 243.427 355.083 243.223 355.682L239.382 355.136C239.685 354.076 240.185 353.189 240.882 352.477C241.579 351.758 242.431 351.22 243.439 350.864C244.446 350.5 245.56 350.318 246.779 350.318C247.62 350.318 248.458 350.417 249.291 350.614C250.124 350.811 250.886 351.136 251.575 351.591C252.264 352.038 252.817 352.648 253.234 353.42C253.658 354.193 253.87 355.159 253.87 356.318V368H249.916V365.602H249.779C249.529 366.087 249.177 366.542 248.723 366.966C248.276 367.383 247.711 367.72 247.029 367.977C246.355 368.227 245.564 368.352 244.654 368.352ZM245.723 365.33C246.548 365.33 247.264 365.167 247.87 364.841C248.476 364.508 248.942 364.068 249.268 363.523C249.601 362.977 249.768 362.383 249.768 361.739V359.682C249.639 359.788 249.42 359.886 249.109 359.977C248.806 360.068 248.465 360.148 248.086 360.216C247.708 360.284 247.333 360.345 246.961 360.398C246.59 360.451 246.268 360.496 245.995 360.534C245.382 360.617 244.833 360.754 244.348 360.943C243.863 361.133 243.48 361.398 243.2 361.739C242.92 362.072 242.779 362.504 242.779 363.034C242.779 363.792 243.056 364.364 243.609 364.75C244.162 365.136 244.867 365.33 245.723 365.33ZM261.48 357.773V368H257.367V350.545H261.299V353.511H261.503C261.905 352.534 262.545 351.758 263.424 351.182C264.31 350.606 265.405 350.318 266.708 350.318C267.912 350.318 268.961 350.576 269.855 351.091C270.757 351.606 271.454 352.352 271.946 353.33C272.446 354.307 272.693 355.492 272.685 356.886V368H268.571V357.523C268.571 356.356 268.268 355.443 267.662 354.784C267.064 354.125 266.234 353.795 265.174 353.795C264.454 353.795 263.814 353.955 263.253 354.273C262.7 354.583 262.264 355.034 261.946 355.625C261.636 356.216 261.48 356.932 261.48 357.773ZM156.669 413V389.727H160.885V400.42H161.169L170.249 389.727H175.396L166.396 400.17L175.476 413H170.408L163.465 403.023L160.885 406.068V413H156.669ZM178.597 413V395.545H182.711V413H178.597ZM180.666 393.068C180.014 393.068 179.453 392.852 178.984 392.42C178.514 391.981 178.279 391.455 178.279 390.841C178.279 390.22 178.514 389.693 178.984 389.261C179.453 388.822 180.014 388.602 180.666 388.602C181.325 388.602 181.885 388.822 182.347 389.261C182.817 389.693 183.052 390.22 183.052 390.841C183.052 391.455 182.817 391.981 182.347 392.42C181.885 392.852 181.325 393.068 180.666 393.068ZM192.778 413.307C191.407 413.307 190.18 412.955 189.097 412.25C188.013 411.545 187.157 410.523 186.528 409.182C185.9 407.841 185.585 406.212 185.585 404.295C185.585 402.356 185.903 400.72 186.54 399.386C187.184 398.045 188.051 397.034 189.142 396.352C190.233 395.663 191.449 395.318 192.79 395.318C193.813 395.318 194.653 395.492 195.312 395.841C195.972 396.182 196.494 396.595 196.881 397.08C197.267 397.557 197.566 398.008 197.778 398.432H197.949V389.727H202.074V413H198.028V410.25H197.778C197.566 410.674 197.259 411.125 196.858 411.602C196.456 412.072 195.926 412.473 195.267 412.807C194.608 413.14 193.778 413.307 192.778 413.307ZM193.926 409.932C194.797 409.932 195.54 409.697 196.153 409.227C196.767 408.75 197.233 408.087 197.551 407.239C197.869 406.39 198.028 405.402 198.028 404.273C198.028 403.144 197.869 402.163 197.551 401.33C197.241 400.496 196.778 399.848 196.165 399.386C195.559 398.924 194.813 398.693 193.926 398.693C193.009 398.693 192.244 398.932 191.631 399.409C191.017 399.886 190.555 400.545 190.244 401.386C189.934 402.227 189.778 403.189 189.778 404.273C189.778 405.364 189.934 406.337 190.244 407.193C190.563 408.042 191.028 408.712 191.642 409.205C192.263 409.689 193.025 409.932 193.926 409.932ZM219.613 400.159L215.863 400.568C215.757 400.189 215.571 399.833 215.306 399.5C215.048 399.167 214.7 398.898 214.261 398.693C213.821 398.489 213.283 398.386 212.647 398.386C211.791 398.386 211.071 398.572 210.488 398.943C209.912 399.314 209.628 399.795 209.636 400.386C209.628 400.894 209.814 401.307 210.192 401.625C210.579 401.943 211.215 402.205 212.101 402.409L215.079 403.045C216.73 403.402 217.958 403.966 218.761 404.739C219.571 405.511 219.98 406.523 219.988 407.773C219.98 408.871 219.658 409.841 219.022 410.682C218.393 411.515 217.518 412.167 216.397 412.636C215.276 413.106 213.988 413.341 212.533 413.341C210.397 413.341 208.677 412.894 207.374 412C206.071 411.098 205.295 409.845 205.045 408.239L209.056 407.852C209.238 408.64 209.624 409.235 210.215 409.636C210.806 410.038 211.575 410.239 212.522 410.239C213.499 410.239 214.283 410.038 214.874 409.636C215.473 409.235 215.772 408.739 215.772 408.148C215.772 407.648 215.579 407.235 215.192 406.909C214.814 406.583 214.223 406.333 213.42 406.159L210.442 405.534C208.768 405.186 207.53 404.598 206.726 403.773C205.923 402.939 205.526 401.886 205.533 400.614C205.526 399.538 205.817 398.606 206.408 397.818C207.007 397.023 207.836 396.409 208.897 395.977C209.965 395.538 211.196 395.318 212.59 395.318C214.636 395.318 216.245 395.754 217.42 396.625C218.601 397.496 219.333 398.674 219.613 400.159Z" fill="black"/>
</g>
<defs>
<clipPath id="clip0_1_1873">
<rect width="375" height="812" fill="white"/>
</clipPath>
<clipPath id="clip1_1_1873">
<path d="M0 788H375V812H0V788Z" fill="white"/>
</clipPath>
</defs>
</svg>
